<?xml version="1.0" encoding="utf-8"?>
<!-- Generator: Adobe Illustrator 24.2.1, SVG Export Plug-In . SVG Version: 6.00 Build 0)  -->
<svg version="1.1" id="Calque_1" xmlns="http://www.w3.org/2000/svg" xmlns:xlink="http://www.w3.org/1999/xlink" x="0px" y="0px"
	 width="510px" height="400px" viewBox="0 0 510 400" style="enable-background:new 0 0 510 400;" xml:space="preserve">
<style type="text/css">
	.st0{fill:#444444;}
	.st1{fill:url(#SVGID_1_);}
	.st2{fill:url(#SVGID_2_);}
	.st3{fill:url(#SVGID_3_);}
	.st4{fill:url(#SVGID_4_);}
</style>
<rect class="st0" width="510" height="400"/>
<g>
	<g>
		<g>
			<g>
				
					<linearGradient id="SVGID_1_" gradientUnits="userSpaceOnUse" x1="207" y1="441.4314" x2="207" y2="670.9314" gradientTransform="matrix(1 0 0 -1 0 766.8814)">
					<stop  offset="1.901455e-03" style="stop-color:#FFFFFF"/>
					<stop  offset="1" style="stop-color:#FFFFFF;stop-opacity:0.7"/>
				</linearGradient>
				<path class="st1" d="M343.5,179.6c-9-47.7-47.9-83.6-94.5-83.6c-41.2,0-76.4,28.4-90.2,67.8C52.2,145.4,34.7,321.4,147,325.4
					c4.7,0,9.3-0.3,13.6-1c87.1-12.6,96.7-145.8,181.9-144.7c0.4,0,0.7,0,1.1,0L343.5,179.6z"/>
			</g>
			<g>
				
					<linearGradient id="SVGID_2_" gradientUnits="userSpaceOnUse" x1="288.7014" y1="587.1382" x2="288.7014" y2="442.1763" gradientTransform="matrix(1 0 0 -1 0 766.8814)">
					<stop  offset="1.901455e-03" style="stop-color:#FFFFFF"/>
					<stop  offset="1" style="stop-color:#FFFFFF;stop-opacity:0.7"/>
				</linearGradient>
				<path class="st2" d="M160.5,324.4c87.1-12.6,96.7-145.8,181.9-144.7c0.4,0,0.7,0,1.1,0c106.1,2.2,86.3,144.2,10,144.8
					C293,324.9,160.5,324.4,160.5,324.4"/>
			</g>
		</g>
		<g>
			
				<linearGradient id="SVGID_3_" gradientUnits="userSpaceOnUse" x1="351.9768" y1="632.9923" x2="439.5768" y2="632.9923" gradientTransform="matrix(1 0 0 -1 0 766.8814)">
				<stop  offset="1.901455e-03" style="stop-color:#FFFFFF"/>
				<stop  offset="1" style="stop-color:#FFFFFF;stop-opacity:0.7"/>
			</linearGradient>
			<path class="st3" d="M439.6,102.4c-3.2-0.4-6.1-0.8-9.1-1c-15-1.3-29.8-0.9-44.3,3.7c-9.1,2.9-17.1,7.5-22.8,15.4
				c-5.3,7.5-8.4,15.9-10,24.9c-0.7,4.2-1.1,8.5-1.4,13c14.4-15.9,31.3-28.5,49.5-39.4c-16.5,13-31.7,27.1-43.2,45.1
				c0.5,0.3,0.9,0.5,1.2,0.6c13.6,3.5,27,3.7,39.9-2.7c10.5-5.2,18.1-13.1,21.8-24.4c1.4-4.4,2.7-8.8,4-13.2
				c2.4-8.2,6.9-15,13.4-20.6c0.2-0.2,0.4-0.3,0.6-0.5C439.2,103,439.3,102.9,439.6,102.4z"/>
			
				<linearGradient id="SVGID_4_" gradientUnits="userSpaceOnUse" x1="339.8017" y1="664.9314" x2="372.3529" y2="664.9314" gradientTransform="matrix(1 0 0 -1 0 766.8814)">
				<stop  offset="1.901455e-03" style="stop-color:#FFFFFF"/>
				<stop  offset="1" style="stop-color:#FFFFFF;stop-opacity:0.7"/>
			</linearGradient>
			<path class="st4" d="M350,74.7c0,0.3-0.1,0.6-0.1,0.9c0.2,5-1.4,9.6-3.9,13.9c-1.4,2.4-2.9,4.8-4,7.3c-3.6,7.8-2.5,15.4,1.6,22.7
				c2.2,3.9,5.3,7.1,9.2,9.9c2.5-5.1,6.2-9.4,5.8-15.5c-0.3-5.1-0.1-10.3-0.1-15.7c0.8,6,1.7,11.9,2.5,18c0.6-0.5,1.1-0.9,1.6-1.3
				c2.7-2,5.3-4.2,8.1-6c1.4-0.9,1.8-1.7,1.5-3.3c-0.8-5.2-3.1-9.9-6-14.2c-4.1-6.2-9.3-11.5-15.1-16.2c-0.2-0.2-0.5-0.4-0.8-0.6
				C350.4,74.7,350.2,74.7,350,74.7z"/>
		</g>
	</g>
</g>
</svg>
