<?xml version="1.0" encoding="iso-8859-1"?>
<!-- Generator: Adobe Illustrator 19.0.0, SVG Export Plug-In . SVG Version: 6.00 Build 0)  -->
<svg version="1.1" id="Capa_1" xmlns="http://www.w3.org/2000/svg" xmlns:xlink="http://www.w3.org/1999/xlink" x="0px" y="0px"
	 viewBox="0 0 512 512" style="enable-background:new 0 0 512 512;" xml:space="preserve">
<path style="fill:#FD3018;" d="M416.667,0H95.333C42.766,0,0,42.767,0,95.334v321.332C0,469.233,42.766,512,95.333,512h321.334
	C469.234,512,512,469.233,512,416.666V95.334C512,42.767,469.234,0,416.667,0z"/>
<path style="fill:#E61E14;" d="M416.667,0H256v512h160.667C469.234,512,512,469.233,512,416.666V95.334
	C512,42.767,469.234,0,416.667,0z"/>
<path style="fill:#F2F2F2;" d="M400.601,271H111.399c-8.284,0-15-6.716-15-15c0-8.283,6.716-15,15-15H400.6c8.284,0,15,6.717,15,15
	C415.601,264.284,408.885,271,400.601,271z"/>
<path style="fill:#D9D9D9;" d="M400.601,241H256v30h144.601c8.284,0,15-6.716,15-15C415.601,247.717,408.885,241,400.601,241z"/>
<g>
</g>
<g>
</g>
<g>
</g>
<g>
</g>
<g>
</g>
<g>
</g>
<g>
</g>
<g>
</g>
<g>
</g>
<g>
</g>
<g>
</g>
<g>
</g>
<g>
</g>
<g>
</g>
<g>
</g>
</svg>
